<?xml version="1.0" encoding="iso-8859-1"?>
<!-- Generator: Adobe Illustrator 19.0.0, SVG Export Plug-In . SVG Version: 6.00 Build 0)  -->
<svg version="1.1" id="Capa_1" xmlns="http://www.w3.org/2000/svg" xmlns:xlink="http://www.w3.org/1999/xlink" x="0px" y="0px" width="60px" height="100px"
	 viewBox="0 0 512 512" style="enable-background:new 0 0 512 512;" xml:space="preserve">
<path style="fill:#414042;" d="M136.533,145.067V51.2h-102.4v93.867c0,28.279,22.921,51.2,51.2,51.2
	S136.533,173.346,136.533,145.067z"/>
<rect x="51.2" y="8.533" style="fill:#E6E7E8;" width="68.267" height="42.667"/>
<path style="fill:#414042;" d="M426.667,315.733c-28.279,0-51.2,22.921-51.2,51.2V460.8h102.4v-93.867
	C477.867,338.654,454.946,315.733,426.667,315.733z"/>
<rect x="392.533" y="460.8" style="fill:#E6E7E8;" width="68.267" height="42.667"/>
<path style="fill:#231F20;" d="M435.2,307.883V93.867C435.2,42.027,393.173,0,341.333,0s-93.867,42.027-93.867,93.867v324.267
	c0,42.419-34.381,76.8-76.8,76.8s-76.8-34.381-76.8-76.8V204.117c29.355-4.258,51.14-29.389,51.2-59.051V51.2
	c0-4.71-3.823-8.533-8.533-8.533H128V8.533C128,3.823,124.177,0,119.467,0H51.2c-4.71,0-8.533,3.823-8.533,8.533v34.133h-8.533
	c-4.71,0-8.533,3.823-8.533,8.533v93.867c0.06,29.662,21.845,54.793,51.2,59.051v214.016c0,51.84,42.027,93.867,93.867,93.867
	s93.867-42.027,93.867-93.867V93.867c0-42.419,34.381-76.8,76.8-76.8s76.8,34.381,76.8,76.8v214.016
	c-29.355,4.258-51.14,29.389-51.2,59.051V460.8c0,4.71,3.823,8.533,8.533,8.533H384v34.133c0,4.71,3.823,8.533,8.533,8.533H460.8
	c4.71,0,8.533-3.823,8.533-8.533v-34.133h8.533c4.71,0,8.533-3.823,8.533-8.533v-93.867
	C486.34,337.271,464.555,312.141,435.2,307.883z M59.733,17.067h51.2v25.6h-51.2V17.067z M42.667,145.067V59.733H128v85.333
	c0,23.561-19.106,42.667-42.667,42.667S42.667,168.627,42.667,145.067z M452.267,494.933h-51.2v-25.6h51.2V494.933z
	 M469.333,452.267H384v-85.333c0-23.561,19.106-42.667,42.667-42.667s42.667,19.106,42.667,42.667V452.267z"/>
<g>
</g>
<g>
</g>
<g>
</g>
<g>
</g>
<g>
</g>
<g>
</g>
<g>
</g>
<g>
</g>
<g>
</g>
<g>
</g>
<g>
</g>
<g>
</g>
<g>
</g>
<g>
</g>
<g>
</g>
</svg>
