<svg id="Capa_1" enable-background="new 0 0 510 510" width="60px" height="100px" viewBox="0 0 510 510" xmlns="http://www.w3.org/2000/svg"><path d="m224.535 78.5c0-5.52-4.48-10-10-10h-8v-53.5c0-8.284-6.716-15-15-15s-15 6.716-15 15v53.5h-50.02v-53.5c0-8.284-6.716-15-15-15s-15 6.716-15 15v53.5h-8c-5.52 0-10 4.48-10 10v50.27h146.02z"/><path d="m241.035 354.23c10.75 0 19.5-8.75 19.5-19.5v-156.46c0-10.75-8.75-19.5-19.5-19.5-11.823 0-173.862 0-179.02 0-10.75 0-19.5 8.75-19.5 19.5v156.46c0 10.75 8.75 19.5 19.5 19.5zm-55.42-91.79-16.74 38.82c-3.292 7.65-12.171 11.096-19.71 7.83-7.61-3.28-11.11-12.1-7.83-19.71l7.71-17.88h-17.84c-10.738 0-18.05-11.009-13.77-20.94l16.74-38.82c3.28-7.61 12.1-11.11 19.71-7.84 7.61 3.28 11.11 12.11 7.83 19.72l-7.71 17.88h17.84c10.738 0 18.05 11.009 13.77 20.94z"/><path d="m453.137 138.953c0-5.542-4.492-10.034-10.033-10.034h-46.866c-5.541 0-10.033 4.492-10.033 10.034v42.14h66.933v-42.14z"/><path d="m462.465 211.19h-85.59c-2.77 0-5.02 2.25-5.02 5.02v40.49c0 17.56 14.24 31.87 31.88 31.87h.89v163.89c0 15.15-12.29 27.44-27.44 27.44h-183.2c-14.17 0-25.86-10.78-27.3-24.57-.2-1.881-.15-.268-.15-30h12.1c8.27 0 15-6.73 15-15v-26.1h-84.22v26.1c0 8.27 6.73 15 15 15h12.02c0 29.808-.024 28.218.07 30 1.5 30.39 26.7 54.67 57.48 54.67h183.19c31.78 0 57.55-25.77 57.55-57.55v-163.88h.88c17.61 0 31.88-14.27 31.88-31.87v-40.49c0-2.77-2.25-5.02-5.02-5.02z"/></svg>