<svg width="60px" height="100px" viewBox="0 0 496 496" xmlns="http://www.w3.org/2000/svg"><path d="m120 448h48v16h-48zm0 0"/><path d="m496 112h-48.351562c-3.519532-35.871094-33.847657-64-70.625-64h-2.046876c-36.777343 0-67.105468 28.128906-70.625 64h-16.351562v-72c0-22.054688-17.945312-40-40-40h-208c-22.054688 0-40 17.945312-40 40v416c0 22.054688 17.945312 40 40 40h208c22.054688 0 40-17.945312 40-40v-88h208zm-121.023438-48h2.046876c30.3125 0 54.976562 24.664062 54.976562 54.976562 0 9.71875-2.585938 19.296876-7.496094 27.695313l-43.382812 74.375c-2.128906 3.632813-8.136719 3.632813-10.242188 0l-43.390625-74.382813c-4.902343-8.390624-7.488281-17.96875-7.488281-27.6875 0-30.3125 24.664062-54.976562 54.976562-54.976562zm-17.914062 165.128906c3.921875 6.703125 11.175781 10.871094 18.9375 10.871094s15.015625-4.167969 18.945312-10.878906l7.65625-13.121094h29.398438v40h-160v-128h32.601562c1.207032 9.398438 4.269532 18.503906 9.0625 26.734375zm-229.0625-117.128906v256h112v16h-192v-288h224v16zm128 240h-112v-32h112zm-48-224v32h-64v-32zm-168-112h208c13.230469 0 24 10.769531 24 24v8h-256v-8c0-13.230469 10.769531-24 24-24zm208 464h-208c-13.230469 0-24-10.769531-24-24v-24h256v24c0 13.230469-10.769531 24-24 24zm24-64h-256v-352h256v16h-240v320h224v-32h16zm48-64v-32h128v-16h-144v48h-32v-48h-128v-32h80v-64h-48v16h32v32h-64v-32h16v-16h-16v-32h80v-48h32v144h192v-72h-36.0625l26.398438-45.265625c4.800781-8.230469 7.855468-17.34375 9.0625-26.734375h32.601562v176h-16v16h16v32zm0 0"/><path d="m376 160c22.054688 0 40-17.945312 40-40s-17.945312-40-40-40-40 17.945312-40 40 17.945312 40 40 40zm0-64c13.230469 0 24 10.769531 24 24s-10.769531 24-24 24-24-10.769531-24-24 10.769531-24 24-24zm0 0"/></svg>