<svg id="phone-case" enable-background="new 0 0 300 300" viewBox="0 0 300 300" width="60px" height="100px" xmlns="http://www.w3.org/2000/svg"><g><path d="m246.828 98 2.828-2.828c1.562-1.562 1.562-4.094 0-5.656s-4.094-1.562-5.656 0l-2.828 2.828-2.828-2.828c-1.562-1.562-4.094-1.562-5.656 0s-1.562 4.094 0 5.656l2.828 2.828-2.828 2.828c-1.562 1.562-1.562 4.094 0 5.656.781.781 1.805 1.172 2.828 1.172s2.047-.391 2.828-1.172l2.828-2.828 2.828 2.828c.781.781 1.805 1.172 2.828 1.172s2.047-.391 2.828-1.172c1.562-1.562 1.562-4.094 0-5.656z"/><path d="m237.172 46c0-6.617-5.383-12-12-12s-12 5.383-12 12 5.383 12 12 12 12-5.383 12-12zm-16 0c0-2.205 1.795-4 4-4s4 1.795 4 4-1.795 4-4 4-4-1.795-4-4z"/><circle cx="225.172" cy="134" r="4"/><path d="m193.172 48.816c0-10.375-8.441-18.816-18.816-18.816h-102.368c-10.375 0-18.816 8.441-18.816 18.816v25.184h-4v20h4v4h-4v20h4v133.184c0 10.375 8.441 18.816 18.816 18.816h102.367c10.375 0 18.816-8.441 18.816-18.816v-145.184h4v-24h-4v-33.184zm-8 202.368c0 5.965-4.852 10.816-10.816 10.816h-102.368c-5.965 0-10.816-4.852-10.816-10.816v-202.368c0-5.964 4.851-10.816 10.816-10.816h102.367c5.965 0 10.816 4.852 10.816 10.816v202.368z"/><path d="m109.172 114h-16c-2.209 0-4 1.791-4 4v16c0 2.209 1.791 4 4 4h16c2.209 0 4-1.791 4-4v-16c0-2.209-1.791-4-4-4zm-4 16h-8v-8h8z"/><path d="m153.172 114h-16c-2.209 0-4 1.791-4 4v16c0 2.209 1.791 4 4 4h16c2.209 0 4-1.791 4-4v-16c0-2.209-1.791-4-4-4zm-4 16h-8v-8h8z"/><path d="m109.172 158h-16c-2.209 0-4 1.791-4 4v16c0 2.209 1.791 4 4 4h16c2.209 0 4-1.791 4-4v-16c0-2.209-1.791-4-4-4zm-4 16h-8v-8h8z"/><path d="m153.172 158h-16c-2.209 0-4 1.791-4 4v16c0 2.209 1.791 4 4 4h16c2.209 0 4-1.791 4-4v-16c0-2.209-1.791-4-4-4zm-4 16h-8v-8h8z"/><path d="m149.172 150v-4c0-2.209-1.791-4-4-4s-4 1.791-4 4v4c0 2.209 1.791 4 4 4s4-1.791 4-4z"/><path d="m125.172 166h-4c-2.209 0-4 1.791-4 4s1.791 4 4 4h4c2.209 0 4-1.791 4-4s-1.791-4-4-4z"/><path d="m125.172 122h-4c-2.209 0-4 1.791-4 4s1.791 4 4 4h4c2.209 0 4-1.791 4-4s-1.791-4-4-4z"/><path d="m105.172 150v-4c0-2.209-1.791-4-4-4s-4 1.791-4 4v4c0 2.209 1.791 4 4 4s4-1.791 4-4z"/><path d="m99.172 46c-3.919 0-7.456 1.629-10 4.233-2.544-2.604-6.081-4.233-10-4.233-7.719 0-14 6.281-14 14s6.281 14 14 14c3.919 0 7.456-1.629 10-4.233 2.544 2.604 6.081 4.233 10 4.233 7.719 0 14-6.281 14-14s-6.281-14-14-14zm-20 20c-3.309 0-6-2.691-6-6s2.691-6 6-6 6 2.691 6 6-2.692 6-6 6zm20 0c-3.309 0-6-2.691-6-6s2.691-6 6-6 6 2.691 6 6-2.692 6-6 6z"/></g></svg>